# xmcd
#
# Track frame offsets:
#	150
#	14138
#	28247
#	40503
#	51046
#	63988
#	75751
#	89511
#	103211
#	115565
#	128668
#	139795
#	152631
#	165184
#	178558
#	193127
#	206651
#	218565
#	231784
#	245077
#	257062
#	268984
#	281076
#	294761
#	308247
#	321953
#
# Disc length: 4465 seconds
#
# Revision: 0
# Processed by: cddbd v1.5.2PL0 Copyright (c) Steve Scherf et al.
# Submitted via: EasyCDDAExtractor 10.0.3.1
#
DISCID=70116f1a
DTITLE=Sunnyland Slim - Sunnyland Slim and His Pals, The Classic Sides 1947-53 -
DTITLE=Disc B (1950-53)
DYEAR=2006
DGENRE=Blues
TTITLE0=Back To Korea Blues
TTITLE1=It's All Over Now
TTITLE2=The Fat Man: You've Got To Stop This Mess
TTITLE3=The Fat Man: Glad I Don't Worry No More
TTITLE4=Down Home Child
TTITLE5=Sunnyland Special
TTITLE6=Leaving Your Town (No Name Blues)
TTITLE7=Mary Lee
TTITLE8=I Done You Wrong
TTITLE9=Orphan Boy Blues
TTITLE10=When I Was Young (Shake It baby)
TTITLE11=(Low Down) Sunnyland Train
TTITLE12=Ain't Nothing But A Child
TTITLE13=Brown Skinned Woman
TTITLE14=Hit The Road Again
TTITLE15=Gin Drinkin' Baby
TTITLE16=Shake It Baby
TTITLE17=Woman Trouble (Ovenite)
TTITLE18=City Of New Orleans
TTITLE19=When I Was Young
TTITLE20=Bassology
TTITLE21=Worried About My Baby
TTITLE22=Troubles Of My Own
TTITLE23=Worried About My Baby
TTITLE24=I Done You Wrong
TTITLE25=Be My Baby
EXTD=
EXTT0=
EXTT1=
EXTT2=
EXTT3=
EXTT4=
EXTT5=
EXTT6=
EXTT7=
EXTT8=
EXTT9=
EXTT10=
EXTT11=
EXTT12=
EXTT13=
EXTT14=
EXTT15=
EXTT16=
EXTT17=
EXTT18=
EXTT19=
EXTT20=
EXTT21=
EXTT22=
EXTT23=
EXTT24=
EXTT25=
PLAYORDER=
